<svg width="146" height="146" viewBox="0 0 146 146" fill="none" xmlns="http://www.w3.org/2000/svg">
<path d="M0 36.9101C0 16.5252 16.5252 0 36.9101 0H109.09C129.475 0 146 16.5252 146 36.9101V109.09C146 129.475 129.475 146 109.09 146H36.9101C16.5252 146 0 129.475 0 109.09V36.9101Z" fill="#F9F9FB"/>
<path d="M65.651 92.9055C69.2157 86.7313 77.1107 84.6158 83.2849 88.1805V88.1805C89.4591 91.7452 91.5746 99.6402 88.0099 105.814V105.814C84.4452 111.989 76.5502 114.104 70.376 110.539V110.539C64.2018 106.975 62.0863 99.0797 65.651 92.9055V92.9055Z" fill="#090E25"/>
<path d="M58.497 40.5549C62.0617 34.3807 69.9566 32.2652 76.1308 35.8299V35.8299C82.3051 39.3946 84.4205 47.2896 80.8558 53.4638L50.7351 105.634C47.1704 111.809 39.2754 113.924 33.1012 110.359V110.359C26.927 106.795 24.8115 98.8998 28.3762 92.7256L58.497 40.5549Z" fill="#090E25"/>
<path d="M96.0001 40.5549C99.5648 34.3807 107.46 32.2652 113.634 35.8299C119.808 39.3946 121.924 47.2896 118.359 53.4638L103.505 79.191C99.9407 85.3652 92.0457 87.4807 85.8715 83.916C79.6973 80.3513 77.5818 72.4564 81.1465 66.2821L96.0001 40.5549Z" fill="#090E25"/>
</svg>
