<svg width="153" height="27" viewBox="0 0 153 27" fill="none" xmlns="http://www.w3.org/2000/svg">
<path d="M43.2 19.7227C43.0895 19.7227 43 19.6331 43 19.5227V6.37593C43 6.26547 43.0895 6.17593 43.2 6.17593H46.5004C46.6108 6.17593 46.7004 6.26548 46.7004 6.37593V11.5287C46.7004 11.5972 46.756 11.6528 46.8246 11.6528V11.6528C46.8637 11.6528 46.9005 11.6344 46.924 11.6031L50.9264 6.25608C50.9642 6.20563 51.0235 6.17593 51.0866 6.17593H54.8948C55.0604 6.17593 55.1543 6.36567 55.0538 6.4973L50.7777 12.0983C50.7271 12.1646 50.723 12.2553 50.7672 12.3259L55.2136 19.4164C55.2971 19.5496 55.2013 19.7227 55.0441 19.7227H51.0994C51.0293 19.7227 50.9643 19.686 50.9281 19.6259L48.076 14.8932C48.0033 14.7727 47.8322 14.7628 47.7463 14.8743L46.742 16.1762C46.715 16.2112 46.7004 16.2541 46.7004 16.2983V19.5227C46.7004 19.6331 46.6108 19.7227 46.5004 19.7227H43.2Z" fill="black"/>
<path d="M43.2 19.7227C43.0895 19.7227 43 19.6331 43 19.5227V6.37593C43 6.26547 43.0895 6.17593 43.2 6.17593H46.5004C46.6108 6.17593 46.7004 6.26548 46.7004 6.37593V11.5287C46.7004 11.5972 46.756 11.6528 46.8246 11.6528V11.6528C46.8637 11.6528 46.9005 11.6344 46.924 11.6031L50.9264 6.25608C50.9642 6.20563 51.0235 6.17593 51.0866 6.17593H54.8948C55.0604 6.17593 55.1543 6.36567 55.0538 6.4973L50.7777 12.0983C50.7271 12.1646 50.723 12.2553 50.7672 12.3259L55.2136 19.4164C55.2971 19.5496 55.2013 19.7227 55.0441 19.7227H51.0994C51.0293 19.7227 50.9643 19.686 50.9281 19.6259L48.076 14.8932C48.0033 14.7727 47.8322 14.7628 47.7463 14.8743L46.742 16.1762C46.715 16.2112 46.7004 16.2541 46.7004 16.2983V19.5227C46.7004 19.6331 46.6108 19.7227 46.5004 19.7227H43.2Z" fill="black"/>
<path d="M60.3558 19.5808C60.3302 19.6651 60.2525 19.7227 60.1645 19.7227H56.5967C56.4603 19.7227 56.3639 19.5891 56.4069 19.4596L60.7731 6.31289C60.8002 6.23112 60.8767 6.17593 60.9629 6.17593H65.7323C65.8185 6.17593 65.895 6.23112 65.9221 6.3129L70.2883 19.4596C70.3313 19.5891 70.2349 19.7227 70.0985 19.7227H66.5307C66.4426 19.7227 66.3649 19.6651 66.3393 19.5808L63.4163 9.95752C63.4071 9.92726 63.3792 9.90658 63.3476 9.90658V9.90658C63.316 9.90658 63.2881 9.92726 63.2789 9.95752L60.3558 19.5808ZM59.5673 14.5781C59.5673 14.4676 59.6569 14.3781 59.7673 14.3781H66.8746C66.985 14.3781 67.0746 14.4676 67.0746 14.5781V16.9297C67.0746 17.0402 66.985 17.1297 66.8746 17.1297H59.7673C59.6569 17.1297 59.5673 17.0402 59.5673 16.9297V14.5781Z" fill="black"/>
<path d="M60.3558 19.5808C60.3302 19.6651 60.2525 19.7227 60.1645 19.7227H56.5967C56.4603 19.7227 56.3639 19.5891 56.4069 19.4596L60.7731 6.31289C60.8002 6.23112 60.8767 6.17593 60.9629 6.17593H65.7323C65.8185 6.17593 65.895 6.23112 65.9221 6.3129L70.2883 19.4596C70.3313 19.5891 70.2349 19.7227 70.0985 19.7227H66.5307C66.4426 19.7227 66.3649 19.6651 66.3393 19.5808L63.4163 9.95752C63.4071 9.92726 63.3792 9.90658 63.3476 9.90658V9.90658C63.316 9.90658 63.2881 9.92726 63.2789 9.95752L60.3558 19.5808ZM59.5673 14.5781C59.5673 14.4676 59.6569 14.3781 59.7673 14.3781H66.8746C66.985 14.3781 67.0746 14.4676 67.0746 14.5781V16.9297C67.0746 17.0402 66.985 17.1297 66.8746 17.1297H59.7673C59.6569 17.1297 59.5673 17.0402 59.5673 16.9297V14.5781Z" fill="black"/>
<path d="M72.2632 19.7227C72.1528 19.7227 72.0633 19.6331 72.0633 19.5227V6.37593C72.0633 6.26547 72.1528 6.17593 72.2633 6.17593H75.5636C75.6741 6.17593 75.7636 6.26548 75.7636 6.37593V16.5593C75.7636 16.6698 75.8532 16.7593 75.9636 16.7593H81.0743C81.1847 16.7593 81.2743 16.8489 81.2743 16.9593V19.5227C81.2743 19.6331 81.1847 19.7227 81.0743 19.7227H72.2632Z" fill="black"/>
<path d="M72.2632 19.7227C72.1528 19.7227 72.0633 19.6331 72.0633 19.5227V6.37593C72.0633 6.26547 72.1528 6.17593 72.2633 6.17593H75.5636C75.6741 6.17593 75.7636 6.26548 75.7636 6.37593V16.5593C75.7636 16.6698 75.8532 16.7593 75.9636 16.7593H81.0743C81.1847 16.7593 81.2743 16.8489 81.2743 16.9593V19.5227C81.2743 19.6331 81.1847 19.7227 81.0743 19.7227H72.2632Z" fill="black"/>
<path d="M83.3449 19.7227C83.2344 19.7227 83.1449 19.6331 83.1449 19.5227V6.37593C83.1449 6.26547 83.2344 6.17593 83.3449 6.17593H86.6453C86.7557 6.17593 86.8453 6.26548 86.8453 6.37593V16.5593C86.8453 16.6698 86.9348 16.7593 87.0453 16.7593H92.1559C92.2664 16.7593 92.3559 16.8489 92.3559 16.9593V19.5227C92.3559 19.6331 92.2664 19.7227 92.1559 19.7227H83.3449Z" fill="black"/>
<path d="M83.3449 19.7227C83.2344 19.7227 83.1449 19.6331 83.1449 19.5227V6.37593C83.1449 6.26547 83.2344 6.17593 83.3449 6.17593H86.6453C86.7557 6.17593 86.8453 6.26548 86.8453 6.37593V16.5593C86.8453 16.6698 86.9348 16.7593 87.0453 16.7593H92.1559C92.2664 16.7593 92.3559 16.8489 92.3559 16.9593V19.5227C92.3559 19.6331 92.2664 19.7227 92.1559 19.7227H83.3449Z" fill="black"/>
<path d="M97.7269 6.17593C97.8374 6.17593 97.9269 6.26548 97.9269 6.37593V19.5227C97.9269 19.6331 97.8374 19.7227 97.7269 19.7227H94.4265C94.3161 19.7227 94.2265 19.6331 94.2265 19.5227V6.37593C94.2265 6.26547 94.3161 6.17593 94.4265 6.17593H97.7269Z" fill="black"/>
<path d="M97.7269 6.17593C97.8374 6.17593 97.9269 6.26548 97.9269 6.37593V19.5227C97.9269 19.6331 97.8374 19.7227 97.7269 19.7227H94.4265C94.3161 19.7227 94.2265 19.6331 94.2265 19.5227V6.37593C94.2265 6.26547 94.3161 6.17593 94.4265 6.17593H97.7269Z" fill="black"/>
<path d="M107.588 10.4093C107.483 10.4093 107.398 10.3289 107.38 10.2262C107.317 9.87201 107.159 9.58907 106.904 9.37741C106.611 9.13046 106.165 9.00699 105.566 9.00699C105.185 9.00699 104.872 9.05329 104.628 9.1459C104.388 9.23409 104.211 9.35536 104.095 9.5097C103.98 9.66404 103.92 9.84043 103.916 10.0389C103.907 10.202 103.936 10.3498 104.002 10.4821C104.073 10.6099 104.184 10.7268 104.335 10.8326C104.486 10.934 104.679 11.0267 104.914 11.1104C105.149 11.1942 105.429 11.2692 105.752 11.3353L106.871 11.5735C107.625 11.7322 108.27 11.9417 108.807 12.2019C109.344 12.462 109.783 12.7685 110.125 13.1213C110.467 13.4697 110.717 13.8621 110.877 14.2987C111.041 14.7353 111.126 15.2115 111.13 15.7274C111.126 16.6182 110.901 17.3723 110.458 17.9896C110.014 18.607 109.38 19.0766 108.554 19.3986C107.734 19.7205 106.746 19.8814 105.593 19.8814C104.408 19.8814 103.374 19.7072 102.491 19.3589C101.613 19.0105 100.93 18.4747 100.441 17.7515C99.9867 17.0673 99.7438 16.2038 99.7127 15.1609C99.7094 15.0502 99.7994 14.9601 99.9102 14.9601H103.034C103.14 14.9601 103.227 15.0435 103.24 15.149C103.28 15.4816 103.379 15.767 103.536 16.0053C103.723 16.2875 103.984 16.5014 104.322 16.6469C104.663 16.7924 105.069 16.8652 105.539 16.8652C105.934 16.8652 106.265 16.8167 106.531 16.7196C106.797 16.6226 106.999 16.4881 107.137 16.3161C107.274 16.1442 107.345 15.9479 107.35 15.7274C107.345 15.5202 107.277 15.3394 107.143 15.185C107.015 15.0263 106.802 14.8852 106.505 14.7617C106.207 14.6338 105.806 14.5148 105.3 14.4045L103.942 14.1135C102.735 13.8533 101.784 13.4189 101.087 12.8104C100.395 12.1974 100.051 11.3618 100.055 10.3035C100.051 9.44355 100.282 8.69169 100.748 8.04787C101.218 7.39964 101.868 6.89472 102.698 6.53312C103.532 6.17152 104.488 5.99072 105.566 5.99072C106.666 5.99072 107.618 6.17373 108.421 6.53974C109.224 6.90575 109.843 7.42169 110.278 8.08756C110.684 8.69853 110.904 9.40543 110.939 10.2083C110.944 10.319 110.853 10.4093 110.743 10.4093H107.588Z" fill="black"/>
<path d="M107.588 10.4093C107.483 10.4093 107.398 10.3289 107.38 10.2262C107.317 9.87201 107.159 9.58907 106.904 9.37741C106.611 9.13046 106.165 9.00699 105.566 9.00699C105.185 9.00699 104.872 9.05329 104.628 9.1459C104.388 9.23409 104.211 9.35536 104.095 9.5097C103.98 9.66404 103.92 9.84043 103.916 10.0389C103.907 10.202 103.936 10.3498 104.002 10.4821C104.073 10.6099 104.184 10.7268 104.335 10.8326C104.486 10.934 104.679 11.0267 104.914 11.1104C105.149 11.1942 105.429 11.2692 105.752 11.3353L106.871 11.5735C107.625 11.7322 108.27 11.9417 108.807 12.2019C109.344 12.462 109.783 12.7685 110.125 13.1213C110.467 13.4697 110.717 13.8621 110.877 14.2987C111.041 14.7353 111.126 15.2115 111.13 15.7274C111.126 16.6182 110.901 17.3723 110.458 17.9896C110.014 18.607 109.38 19.0766 108.554 19.3986C107.734 19.7205 106.746 19.8814 105.593 19.8814C104.408 19.8814 103.374 19.7072 102.491 19.3589C101.613 19.0105 100.93 18.4747 100.441 17.7515C99.9867 17.0673 99.7438 16.2038 99.7127 15.1609C99.7094 15.0502 99.7994 14.9601 99.9102 14.9601H103.034C103.14 14.9601 103.227 15.0435 103.24 15.149C103.28 15.4816 103.379 15.767 103.536 16.0053C103.723 16.2875 103.984 16.5014 104.322 16.6469C104.663 16.7924 105.069 16.8652 105.539 16.8652C105.934 16.8652 106.265 16.8167 106.531 16.7196C106.797 16.6226 106.999 16.4881 107.137 16.3161C107.274 16.1442 107.345 15.9479 107.35 15.7274C107.345 15.5202 107.277 15.3394 107.143 15.185C107.015 15.0263 106.802 14.8852 106.505 14.7617C106.207 14.6338 105.806 14.5148 105.3 14.4045L103.942 14.1135C102.735 13.8533 101.784 13.4189 101.087 12.8104C100.395 12.1974 100.051 11.3618 100.055 10.3035C100.051 9.44355 100.282 8.69169 100.748 8.04787C101.218 7.39964 101.868 6.89472 102.698 6.53312C103.532 6.17152 104.488 5.99072 105.566 5.99072C106.666 5.99072 107.618 6.17373 108.421 6.53974C109.224 6.90575 109.843 7.42169 110.278 8.08756C110.684 8.69853 110.904 9.40543 110.939 10.2083C110.944 10.319 110.853 10.4093 110.743 10.4093H107.588Z" fill="black"/>
<path d="M112.74 9.13928C112.629 9.13928 112.54 9.04974 112.54 8.93928V6.37593C112.54 6.26548 112.629 6.17593 112.74 6.17593H124.186C124.297 6.17593 124.386 6.26548 124.386 6.37593V8.93928C124.386 9.04974 124.297 9.13928 124.186 9.13928H120.487C120.376 9.13928 120.287 9.22883 120.287 9.33928V19.5227C120.287 19.6331 120.197 19.7227 120.087 19.7227H116.839C116.729 19.7227 116.639 19.6331 116.639 19.5227V9.33928C116.639 9.22882 116.55 9.13928 116.439 9.13928H112.74Z" fill="black"/>
<path d="M112.74 9.13928C112.629 9.13928 112.54 9.04974 112.54 8.93928V6.37593C112.54 6.26548 112.629 6.17593 112.74 6.17593H124.186C124.297 6.17593 124.386 6.26548 124.386 6.37593V8.93928C124.386 9.04974 124.297 9.13928 124.186 9.13928H120.487C120.376 9.13928 120.287 9.22883 120.287 9.33928V19.5227C120.287 19.6331 120.197 19.7227 120.087 19.7227H116.839C116.729 19.7227 116.639 19.6331 116.639 19.5227V9.33928C116.639 9.22882 116.55 9.13928 116.439 9.13928H112.74Z" fill="black"/>
<path d="M138.717 12.9493C138.717 14.4574 138.422 15.7296 137.832 16.7659C137.242 17.7978 136.446 18.5805 135.443 19.1141C134.44 19.6433 133.322 19.9079 132.089 19.9079C130.846 19.9079 129.724 19.6411 128.721 19.1075C127.723 18.5695 126.929 17.7846 126.338 16.7527C125.753 15.7164 125.46 14.4486 125.46 12.9493C125.46 11.4412 125.753 10.1712 126.338 9.13928C126.929 8.10299 127.723 7.32026 128.721 6.79109C129.724 6.25751 130.846 5.99072 132.089 5.99072C133.322 5.99072 134.44 6.25751 135.443 6.79109C136.446 7.32026 137.242 8.10299 137.832 9.13928C138.422 10.1712 138.717 11.4412 138.717 12.9493ZM134.911 12.9493C134.911 12.1379 134.802 11.4544 134.584 10.8988C134.371 10.3387 134.054 9.9154 133.633 9.62876C133.216 9.33772 132.701 9.1922 132.089 9.1922C131.476 9.1922 130.959 9.33772 130.538 9.62876C130.121 9.9154 129.804 10.3387 129.586 10.8988C129.373 11.4544 129.267 12.1379 129.267 12.9493C129.267 13.7607 129.373 14.4464 129.586 15.0065C129.804 15.5621 130.121 15.9854 130.538 16.2765C130.959 16.5631 131.476 16.7064 132.089 16.7064C132.701 16.7064 133.216 16.5631 133.633 16.2765C134.054 15.9854 134.371 15.5621 134.584 15.0065C134.802 14.4464 134.911 13.7607 134.911 12.9493Z" fill="black"/>
<path d="M138.717 12.9493C138.717 14.4574 138.422 15.7296 137.832 16.7659C137.242 17.7978 136.446 18.5805 135.443 19.1141C134.44 19.6433 133.322 19.9079 132.089 19.9079C130.846 19.9079 129.724 19.6411 128.721 19.1075C127.723 18.5695 126.929 17.7846 126.338 16.7527C125.753 15.7164 125.46 14.4486 125.46 12.9493C125.46 11.4412 125.753 10.1712 126.338 9.13928C126.929 8.10299 127.723 7.32026 128.721 6.79109C129.724 6.25751 130.846 5.99072 132.089 5.99072C133.322 5.99072 134.44 6.25751 135.443 6.79109C136.446 7.32026 137.242 8.10299 137.832 9.13928C138.422 10.1712 138.717 11.4412 138.717 12.9493ZM134.911 12.9493C134.911 12.1379 134.802 11.4544 134.584 10.8988C134.371 10.3387 134.054 9.9154 133.633 9.62876C133.216 9.33772 132.701 9.1922 132.089 9.1922C131.476 9.1922 130.959 9.33772 130.538 9.62876C130.121 9.9154 129.804 10.3387 129.586 10.8988C129.373 11.4544 129.267 12.1379 129.267 12.9493C129.267 13.7607 129.373 14.4464 129.586 15.0065C129.804 15.5621 130.121 15.9854 130.538 16.2765C130.959 16.5631 131.476 16.7064 132.089 16.7064C132.701 16.7064 133.216 16.5631 133.633 16.2765C134.054 15.9854 134.371 15.5621 134.584 15.0065C134.802 14.4464 134.911 13.7607 134.911 12.9493Z" fill="black"/>
<path d="M152.398 6.17593C152.508 6.17593 152.598 6.26548 152.598 6.37593V19.5227C152.598 19.6331 152.508 19.7227 152.398 19.7227H149.614C149.549 19.7227 149.487 19.6905 149.45 19.6365L144.6 12.6279C144.59 12.6138 144.574 12.6053 144.557 12.6053V12.6053C144.528 12.6053 144.505 12.6288 144.505 12.6577V19.5227C144.505 19.6331 144.415 19.7227 144.305 19.7227H141.004C140.894 19.7227 140.804 19.6331 140.804 19.5227V6.37593C140.804 6.26547 140.894 6.17593 141.004 6.17593H143.84C143.906 6.17593 143.968 6.20855 144.005 6.2631L148.77 13.2364C148.783 13.2554 148.805 13.2668 148.828 13.2668V13.2668C148.866 13.2668 148.897 13.2356 148.897 13.1971V6.37593C148.897 6.26548 148.987 6.17593 149.097 6.17593H152.398Z" fill="black"/>
<path d="M152.398 6.17593C152.508 6.17593 152.598 6.26548 152.598 6.37593V19.5227C152.598 19.6331 152.508 19.7227 152.398 19.7227H149.614C149.549 19.7227 149.487 19.6905 149.45 19.6365L144.6 12.6279C144.59 12.6138 144.574 12.6053 144.557 12.6053V12.6053C144.528 12.6053 144.505 12.6288 144.505 12.6577V19.5227C144.505 19.6331 144.415 19.7227 144.305 19.7227H141.004C140.894 19.7227 140.804 19.6331 140.804 19.5227V6.37593C140.804 6.26547 140.894 6.17593 141.004 6.17593H143.84C143.906 6.17593 143.968 6.20855 144.005 6.2631L148.77 13.2364C148.783 13.2554 148.805 13.2668 148.828 13.2668V13.2668C148.866 13.2668 148.897 13.2356 148.897 13.1971V6.37593C148.897 6.26548 148.987 6.17593 149.097 6.17593H152.398Z" fill="black"/>
<path d="M0 6.78859C0 3.03935 3.03935 0 6.78859 0H20.064C23.8133 0 26.8526 3.03935 26.8526 6.78859V20.064C26.8526 23.8133 23.8133 26.8526 20.064 26.8526H6.78859C3.03935 26.8526 0 23.8133 0 20.064V6.78859Z" fill="black"/>
<path d="M12.0748 17.0874C12.7305 15.9518 14.1825 15.5627 15.3181 16.2184V16.2184C16.4537 16.874 16.8428 18.326 16.1871 19.4616V19.4616C15.5315 20.5972 14.0795 20.9863 12.9439 20.3307V20.3307C11.8083 19.675 11.4192 18.223 12.0748 17.0874V17.0874Z" fill="white"/>
<path d="M10.7591 7.45898C11.4147 6.3234 12.8667 5.93432 14.0023 6.58995C15.1379 7.24557 15.527 8.69763 14.8713 9.83321L9.33147 19.4285C8.67584 20.5641 7.22379 20.9532 6.08821 20.2976C4.95263 19.642 4.56355 18.1899 5.21918 17.0543L10.7591 7.45898Z" fill="white"/>
<path d="M17.6569 7.45898C18.3125 6.3234 19.7646 5.93432 20.9001 6.58995C22.0357 7.24557 22.4248 8.69763 21.7692 9.83321L19.0373 14.565C18.3816 15.7006 16.9296 16.0897 15.794 15.434C14.6584 14.7784 14.2693 13.3264 14.925 12.1908L17.6569 7.45898Z" fill="white"/>
</svg>
