<svg width="161" height="42" viewBox="0 0 161 42" fill="none" xmlns="http://www.w3.org/2000/svg">
<g style="mix-blend-mode:multiply" opacity="0.1">
<path d="M160.006 22.5542L161 22.8543V42H1V4.3246L1.99228 6.96813L2.98634 7.87193L3.98039 6.36083L4.97445 3.24218L5.96851 2.40625L6.96256 4.27101L7.95662 8.38635L8.95068 13.1411L9.94474 11.8408L10.9388 15.5167L11.9328 19.3499L12.9269 12.7375L13.921 6.58232L14.915 8.3149L15.9091 10.3511L16.9031 9.9296L17.8972 9.12939L18.8913 11.1442L19.8853 15.9347L20.8794 15.6453L21.8734 14.8952L22.8675 18.5497L23.8615 12.5731L24.8556 9.97604L25.8496 11.3228L26.8437 16.8028L27.8378 15.331L28.8318 13.2019L29.8259 10.419L30.8199 9.18655L31.814 13.2447L32.808 8.1863L33.8021 8.61498L34.7962 11.948L35.7902 10.7798L36.7843 10.7334L37.7783 12.248L38.7724 9.03651L39.7664 9.88316L40.7605 14.0414L41.7546 16.3027L42.7486 13.4162L43.7427 10.762L44.7367 16.1705L45.7308 18.4353L46.7249 18.2782L47.7189 11.3085L48.713 13.5198L49.707 14.5558L50.7011 21.5647L51.6951 25.605L52.6892 13.8949L53.6833 11.6443L54.6773 16.6456L55.6714 13.0483L56.6654 16.1169L57.6595 17.7102L58.6535 19.2856L59.6476 18.7997L60.6416 11.2014L61.6357 13.8342L62.6298 12.9482L63.6238 12.6196L64.6179 14.1021L65.6119 10.4833L66.606 11.7408L67.6 12.5517L68.5941 11.7336L69.5882 13.5555L70.5408 12.8768L71.5349 11.9122L72.5289 12.0123L73.523 14.2628L74.517 11.5943L75.5111 14.6129L76.5051 13.0697L77.4992 13.9735L78.4933 11.0942L79.4873 10.1689L80.4814 15.5489L81.4754 15.038L82.4695 15.3345L83.4635 12.8411L84.4576 14.6844L85.4517 13.3019L86.4457 15.9597L87.4398 15.6596L88.4338 18.3818L89.4279 17.7995L90.4219 18.3496L91.416 12.6803L92.41 12.3052L93.4041 17.235L94.3982 13.5734L95.3922 18.9426L96.3863 14.4379L97.3803 13.1733L98.3744 14.8166L99.3685 14.913L100.363 15.6203L101.357 19.1177L102.351 26.8839L103.345 25.0549L104.339 12.5195L105.333 18.3603L106.327 14.0592L107.321 16.6706L108.315 13.7913L109.309 15.6382L110.303 19.6214L111.297 20.8502L112.291 20.7502L113.285 20.593L114.279 18.3175L115.273 22.1684L116.267 16.9993L117.261 21.4397L118.256 17.9388L119.25 15.6132L120.244 26.2016L121.238 29.4453L122.232 30.4062L123.226 27.3733L124.22 24.3047L125.214 20.5323L126.208 24.0725L127.202 23.0758L128.196 24.4047L129.19 21.8969L130.184 23.7117L131.178 18.2853L132.172 17.0314L133.166 22.865L134.16 29.356L135.155 20.543L136.149 23.158L137.143 20.6037L138.137 17.678L139.131 26.6481L140.125 24.6655L141.119 21.1182L142.113 26.5481L143.107 27.1411L144.101 28.5236L145.095 29.4453L146.089 21.0539L147.083 22.1506L148.077 28.7915L149.071 23.458L150.065 22.0112L151.059 26.4302L152.053 27.9521L153.048 19.9786L154.042 23.0079L155.036 23.7474L156.03 22.1399L157.024 22.6971L158.018 26.591L159.012 26.2159L160.006 22.5542Z" fill="url(#paint0_linear_219_11905)"/>
</g>
<path d="M161 22.8543L160.006 22.5542L159.012 26.2159L158.018 26.591L157.024 22.6971L156.03 22.1399L155.036 23.7474L154.042 23.0079L153.048 19.9786L152.053 27.9521L151.059 26.4302L150.065 22.0113L149.071 23.4581L148.077 28.7916L147.083 22.1506L146.089 21.0539L145.095 29.4453L144.101 28.5236L143.107 27.1411L142.113 26.5481L141.119 21.1182L140.125 24.6655L139.131 26.6482L138.137 17.678L137.143 20.6038L136.149 23.158L135.155 20.543L134.16 29.356L133.166 22.865L132.172 17.0314L131.178 18.2853L130.184 23.7117L129.19 21.8969L128.196 24.4047L127.202 23.0758L126.208 24.0725L125.214 20.5323L124.22 24.3047L123.226 27.3733L122.232 30.4063L121.238 29.4453L120.244 26.2016L119.25 15.6132L118.256 17.9388L117.261 21.4397L116.267 16.9993L115.273 22.1684L114.279 18.3175L113.285 20.593L112.291 20.7502L111.297 20.8502L110.303 19.6214L109.309 15.6382L108.315 13.7913L107.321 16.6706L106.327 14.0592L105.333 18.3603L104.339 12.5195L103.345 25.0549L102.351 26.8839L101.357 19.1177L100.363 15.6203L99.3685 14.913L98.3744 14.8166L97.3803 13.1733L96.3863 14.4379L95.3922 18.9426L94.3982 13.5734L93.4041 17.235L92.4101 12.3052L91.416 12.6803L90.4219 18.3496L89.4279 17.7995L88.4338 18.3818L87.4398 15.6596L86.4457 15.9597L85.4517 13.3019L84.4576 14.6844L83.4635 12.8411L82.4695 15.3345L81.4754 15.038L80.4814 15.5489L79.4873 10.1689L78.4933 11.0942L77.4992 13.9735L76.5051 13.0697L75.5111 14.6129L74.517 11.5943L73.523 14.2628L72.5289 12.0123L71.5349 11.9122L70.5408 12.8768L69.5882 13.5555L68.5941 11.7336L67.6 12.5517L66.606 11.7408L65.6119 10.4833L64.6179 14.1021L63.6238 12.6196L62.6298 12.9482L61.6357 13.8342L60.6416 11.2014L59.6476 18.7997L58.6535 19.2856L57.6595 17.7102L56.6654 16.1169L55.6714 13.0483L54.6773 16.6456L53.6833 11.6443L52.6892 13.8949L51.6951 25.605L50.7011 21.5647L49.707 14.5558L48.713 13.5198L47.7189 11.3085L46.7249 18.2782L45.7308 18.4353L44.7367 16.1705L43.7427 10.762L42.7486 13.4162L41.7546 16.3027L40.7605 14.0414L39.7664 9.88316L38.7724 9.03651L37.7783 12.248L36.7843 10.7334L35.7902 10.7798L34.7962 11.948L33.8021 8.61498L32.808 8.1863L31.814 13.2447L30.8199 9.18655L29.8259 10.419L28.8318 13.2019L27.8378 15.331L26.8437 16.8028L25.8496 11.3228L24.8556 9.97604L23.8615 12.5731L22.8675 18.5497L21.8734 14.8952L20.8794 15.6453L19.8853 15.9347L18.8913 11.1442L17.8972 9.12939L16.9031 9.9296L15.9091 10.3511L14.915 8.3149L13.921 6.58232L12.9269 12.7375L11.9329 19.3499L10.9388 15.5167L9.94474 11.8408L8.95068 13.1411L7.95662 8.38635L6.96256 4.27101L5.96851 2.40625L4.97445 3.24218L3.98039 6.36083L2.98634 7.87193L1.99228 6.96813L1 4.3246" stroke="#AA9882" stroke-width="2" stroke-linecap="round" stroke-linejoin="round"/>
<defs>
<linearGradient id="paint0_linear_219_11905" x1="81" y1="2.40625" x2="81" y2="40.2373" gradientUnits="userSpaceOnUse">
<stop stop-color="#AC7D02"/>
<stop offset="0.9999" stop-color="#4B4EFC" stop-opacity="0.01"/>
<stop offset="1" stop-color="#AC7D02" stop-opacity="0"/>
</linearGradient>
</defs>
</svg>
