<svg width="34" height="24" viewBox="0 0 34 24" fill="none" xmlns="http://www.w3.org/2000/svg">
<g clip-path="url(#clip0_219_13417)">
<path fill-rule="evenodd" clip-rule="evenodd" d="M4.67014 0H29.3299C30.9534 0 31.5423 0.168 32.1361 0.48C32.7311 0.7944 33.1961 1.2552 33.5131 1.842C33.8312 2.4288 34 3.0108 34 4.614V19.386C34 20.9892 33.83 21.5712 33.5143 22.158C33.2034 22.738 32.7232 23.2121 32.1361 23.5188C31.5423 23.8332 30.9534 24 29.3311 24H4.66771C3.04543 24 2.4565 23.832 1.86271 23.52C1.27568 23.2125 0.795871 22.7375 0.485714 22.1568C0.168786 21.5712 0 20.9892 0 19.386V4.6128C0 3.0096 0.17 2.4276 0.485714 1.8408C0.796906 1.26067 1.27756 0.786508 1.86514 0.48C2.45771 0.1668 3.04664 0 4.66893 0H4.67014Z" fill="#EDEEED"/>
<path d="M16.2002 7.19981L14.0462 16.7998H11.6318L13.6238 7.19981H16.2002ZM28.9634 16.7998V16.7854L28.6634 15.3694H25.5554L25.0502 16.7854H22.5002L26.141 7.90782C26.2198 7.69738 26.3617 7.51643 26.5473 7.3897C26.7329 7.26297 26.9531 7.19666 27.1778 7.19981H29.237L31.2002 16.7998H28.9634ZM26.2502 13.3714H28.2686L27.5318 9.87462L26.2502 13.3714ZM22.637 13.6186C22.6226 15.5638 20.9594 16.7998 18.4082 16.7998C17.3306 16.7866 16.2806 16.567 15.7082 16.3066L16.1582 14.2762C16.7174 14.5366 17.4122 14.8798 18.6398 14.8522C19.3358 14.8522 20.0858 14.5786 20.099 13.9474C20.099 13.549 19.7858 13.2478 18.8306 12.7954C17.9174 12.3562 16.703 11.6026 16.7174 10.2718C16.7186 8.46102 18.4082 7.19981 20.8082 7.19981C21.749 7.19981 22.499 7.40501 23.0714 7.61141L22.649 9.57222C21.9043 9.22486 21.0803 9.08277 20.2622 9.16061C19.5662 9.25661 19.2398 9.61302 19.2266 9.94302C19.2122 11.0398 22.6346 11.1766 22.6346 13.6186H22.637ZM8.65939 16.7998H6.1082L4.1726 9.14261C4.0502 8.67461 3.941 8.50421 3.587 8.29061C2.8286 7.92219 2.02663 7.65124 1.2002 7.48421L1.2542 7.19981H5.38819C5.90539 7.19981 6.38419 7.56822 6.50539 8.19222L7.529 13.7362L10.0502 7.19981H12.6002L8.65939 16.7998Z" fill="#AA9882"/>
</g>
<defs>
<clipPath id="clip0_219_13417">
<rect width="34" height="24" fill="white"/>
</clipPath>
</defs>
</svg>
