<svg width="161" height="42" viewBox="0 0 161 42" fill="none" xmlns="http://www.w3.org/2000/svg">
<g style="mix-blend-mode:multiply" opacity="0.1">
<path d="M156.429 8.41315C158.714 8.41315 158.714 5.46875 161 5.46875V42H1V24.2919C3.4762 24.2919 3.28572 25.375 5.57144 25.375C7.85715 25.375 7.85715 22.2992 10.1429 22.2992C12.4286 22.2992 12.0476 23.2456 14.7143 23.2456C17.381 23.2456 16.619 25.0175 19.2857 25.0175C21.9524 25.0175 21.381 24.3445 23.8571 24.3445C26.3333 24.3445 25.8571 21.1372 28.4286 21.1372C31 21.1372 30.3333 22.1835 33 22.1835C35.6667 22.1835 35.1905 23.6241 37.5714 23.6241C39.9524 23.6241 39.5714 18.8395 42.1429 18.8395C44.7143 18.8395 44.4286 20.4957 46.7143 20.4957C49 20.4957 48.619 18.177 51.2857 18.177C53.9524 18.177 53.381 19.6597 55.8571 19.6597C58.3333 19.6597 57.9524 13.5974 60.4286 13.5974C62.9048 13.5974 62.4286 15.2852 65 15.2852C67.5714 15.2852 66.9048 16.3998 69.5714 16.3998C72.2381 16.3998 71.5714 13.508 74.1429 13.508C76.7143 13.508 76.0476 14.9276 78.7143 14.9276C81.381 14.9276 80.9048 12.5879 83.2857 12.5879C85.6667 12.5879 85.381 8.67604 87.8571 8.67604C90.3333 8.67604 89.9524 15.2221 92.4286 15.2221C94.9048 15.2221 94.619 10.6372 97 10.6372C99.381 10.6372 98.9048 12.6457 101.571 12.6457C104.238 12.6457 103.667 14.4492 106.143 14.4492C108.619 14.4492 108.333 11.4627 110.714 11.4627C113.095 11.4627 112.905 14.302 115.286 14.302C117.667 14.302 117.381 13.0401 119.857 13.0401C122.333 13.0401 121.952 10.4374 124.429 10.4374C126.905 10.4374 126.524 11.4785 129 11.4785C131.476 11.4785 131.286 7.67705 133.571 7.67705C135.857 7.67705 135.476 12.8876 138.143 12.8876C140.81 12.8876 140.143 9.34905 142.714 9.34905C145.286 9.34905 144.905 10.8055 147.286 10.8055C149.667 10.8055 149.476 7.17755 151.857 7.17755C154.238 7.17755 154.143 8.41315 156.429 8.41315Z" fill="url(#paint0_linear_219_11929)"/>
</g>
<path d="M161 5.46875C158.714 5.46875 158.714 8.41315 156.429 8.41315C154.143 8.41315 154.238 7.17755 151.857 7.17755C149.476 7.17755 149.667 10.8055 147.286 10.8055C144.905 10.8055 145.286 9.34905 142.714 9.34905C140.143 9.34905 140.81 12.8876 138.143 12.8876C135.476 12.8876 135.857 7.67705 133.571 7.67705C131.286 7.67705 131.476 11.4785 129 11.4785C126.524 11.4785 126.905 10.4374 124.429 10.4374C121.952 10.4374 122.333 13.0401 119.857 13.0401C117.381 13.0401 117.667 14.302 115.286 14.302C112.905 14.302 113.095 11.4627 110.714 11.4627C108.333 11.4627 108.619 14.4492 106.143 14.4492C103.667 14.4492 104.238 12.6457 101.571 12.6457C98.9048 12.6457 99.381 10.6372 97 10.6372C94.619 10.6372 94.9048 15.2221 92.4286 15.2221C89.9524 15.2221 90.3333 8.67604 87.8571 8.67604C85.381 8.67604 85.6667 12.5879 83.2857 12.5879C80.9048 12.5879 81.381 14.9276 78.7143 14.9276C76.0476 14.9276 76.7143 13.508 74.1429 13.508C71.5714 13.508 72.2381 16.3998 69.5714 16.3998C66.9048 16.3998 67.5714 15.2852 65 15.2852C62.4286 15.2852 62.9048 13.5974 60.4286 13.5974C57.9524 13.5974 58.3333 19.6597 55.8571 19.6597C53.381 19.6597 53.9524 18.177 51.2857 18.177C48.6191 18.177 49 20.4957 46.7143 20.4957C44.4286 20.4957 44.7143 18.8395 42.1429 18.8395C39.5714 18.8395 39.9524 23.6241 37.5714 23.6241C35.1905 23.6241 35.6667 22.1835 33 22.1835C30.3333 22.1835 31 21.1372 28.4286 21.1372C25.8571 21.1372 26.3333 24.3445 23.8571 24.3445C21.381 24.3445 21.9524 25.0175 19.2857 25.0175C16.6191 25.0175 17.381 23.2456 14.7143 23.2456C12.0476 23.2456 12.4286 22.2992 10.1429 22.2992C7.85715 22.2992 7.85715 25.375 5.57144 25.375C3.28572 25.375 3.4762 24.2919 1.00001 24.2919" stroke="#AA9882" stroke-width="2" stroke-linecap="round" stroke-linejoin="round"/>
<defs>
<linearGradient id="paint0_linear_219_11929" x1="81" y1="5.46875" x2="81" y2="40.3736" gradientUnits="userSpaceOnUse">
<stop stop-color="#AC7D02"/>
<stop offset="0.9999" stop-color="#4B4EFC" stop-opacity="0.01"/>
<stop offset="1" stop-color="#AC7D02" stop-opacity="0"/>
</linearGradient>
</defs>
</svg>
