<svg width="161" height="42" viewBox="0 0 161 42" fill="none" xmlns="http://www.w3.org/2000/svg">
<g style="mix-blend-mode:multiply" opacity="0.1">
<path d="M4.62606 17.8914L1 18.5938V42H161V10.0625L157.601 11.2289H153.975L152.275 12.3212H150.008C149.404 12.5032 148.15 12.8673 147.969 12.8673C147.788 12.8673 146.609 13.0857 146.042 13.1949L141.17 13.5226L138.337 13.9595L133.805 13.5226L131.425 13.1949L128.025 13.9595H124.513L121.567 13.1949C120.433 13.0857 118.122 12.8673 117.941 12.8673C117.759 12.8673 116.279 12.6488 115.561 12.5396H113.748L109.442 12.8673L105.703 13.1949L104.003 13.9595L98.9037 14.2871L96.2974 14.6148L93.3513 15.1609L90.5184 16.4716H89.2719L85.8725 16.1439L82.5864 15.1609L79.7535 14.6148H78.0538L75.1076 14.2871L70.915 14.6148H66.949L62.983 15.1609L59.017 15.8162L56.0708 16.4716L52.898 16.7992L48.5921 16.4716L45.1926 16.7992L41.7932 17.1269L38.6204 16.7992L34.3144 17.5638L30.6884 17.1269L27.0623 17.5638H23.5496L19.8102 17.8914H15.9575L12.1048 18.2191L8.36544 17.5638L4.62606 17.8914Z" fill="url(#paint0_linear_219_11953)"/>
</g>
<path d="M1 18.5937L4.62606 17.8914L8.36544 17.5638L12.1048 18.2191L15.9575 17.8914H19.8102L23.5496 17.5638H27.0623L30.6884 17.1269L34.3144 17.5638L38.6204 16.7992L41.7932 17.1269L45.1926 16.7992L48.5921 16.4716L52.898 16.7992L56.0708 16.4716L59.017 15.8162L62.983 15.1609L66.949 14.6148H70.915L75.1077 14.2871L78.0538 14.6148H79.7535L82.5864 15.1609L85.8725 16.1439L89.272 16.4716H90.5184L93.3513 15.1609L96.2975 14.6148L98.9037 14.2871L104.003 13.9595L105.703 13.1949L109.442 12.8673L113.748 12.5396H115.561C116.279 12.6488 117.759 12.8673 117.941 12.8673C118.122 12.8673 120.433 13.0857 121.567 13.1949L124.513 13.9595H128.025L131.425 13.1949L133.805 13.5226L138.337 13.9595L141.17 13.5226L146.042 13.1949C146.609 13.0857 147.788 12.8673 147.969 12.8673C148.15 12.8673 149.404 12.5032 150.009 12.3212H152.275L153.975 11.2289H157.601L161 10.0625" stroke="#AA9882" stroke-width="2" stroke-linecap="round" stroke-linejoin="round"/>
<defs>
<linearGradient id="paint0_linear_219_11953" x1="81" y1="10.0625" x2="81" y2="40.5781" gradientUnits="userSpaceOnUse">
<stop stop-color="#AC7D02"/>
<stop offset="0.9999" stop-color="#4B4EFC" stop-opacity="0.01"/>
<stop offset="1" stop-color="#AC7D02" stop-opacity="0"/>
</linearGradient>
</defs>
</svg>
