<svg width="27" height="27" viewBox="0 0 27 27" fill="none" xmlns="http://www.w3.org/2000/svg">
<path d="M0 6.79786C0 3.04863 3.03935 0.00927734 6.78859 0.00927734H20.064C23.8133 0.00927734 26.8526 3.04863 26.8526 6.79786V20.0733C26.8526 23.8226 23.8133 26.8619 20.064 26.8619H6.78859C3.03935 26.8619 0 23.8226 0 20.0733V6.79786Z" fill="black"/>
<path d="M12.0746 17.0967C12.7302 15.9611 14.1823 15.572 15.3179 16.2276C16.4534 16.8833 16.8425 18.3353 16.1869 19.4709C15.5313 20.6065 14.0792 20.9956 12.9436 20.3399C11.8081 19.6843 11.419 18.2322 12.0746 17.0967Z" fill="white"/>
<path d="M10.7589 7.46825C11.4146 6.33268 12.8666 5.9436 14.0022 6.59922C15.1378 7.25485 15.5268 8.70691 14.8712 9.84249L9.33135 19.4378C8.67572 20.5734 7.22366 20.9625 6.08809 20.3069C4.95251 19.6512 4.56343 18.1992 5.21906 17.0636L10.7589 7.46825Z" fill="white"/>
<path d="M17.6569 7.46826C18.3125 6.33268 19.7646 5.9436 20.9001 6.59922C22.0357 7.25485 22.4248 8.70691 21.7692 9.84248L19.0373 14.5743C18.3816 15.7099 16.9296 16.0989 15.794 15.4433C14.6584 14.7877 14.2693 13.3356 14.925 12.2001L17.6569 7.46826Z" fill="white"/>
</svg>
