<svg width="20" height="20" viewBox="0 0 20 20" fill="none" xmlns="http://www.w3.org/2000/svg">
<g clip-path="url(#clip0_268_19833)">
<path d="M0 0H20V20H0V0Z" fill="white"/>
<path d="M3.33333 3.33334H16.6667V13.3333H4.30833L3.33333 14.3083V3.33334ZM3.33333 1.66667C2.41666 1.66667 1.675 2.41667 1.675 3.33334L1.66666 18.3333L5 15H16.6667C17.5833 15 18.3333 14.25 18.3333 13.3333V3.33334C18.3333 2.41667 17.5833 1.66667 16.6667 1.66667H3.33333ZM5 10H15V11.6667H5V10ZM5 7.50001H15V9.16667H5V7.50001ZM5 5.00001H15V6.66667H5V5.00001Z" fill="#AA9882"/>
</g>
<defs>
<clipPath id="clip0_268_19833">
<rect width="20" height="20" fill="white"/>
</clipPath>
</defs>
</svg>
