<svg width="76" height="72" viewBox="0 0 76 72" fill="none" xmlns="http://www.w3.org/2000/svg">
<ellipse cx="37.9999" cy="36" rx="37.6119" ry="35.7313" fill="white"/>
<path d="M38.0001 4.33334C19.6001 4.33334 4.66675 18.52 4.66675 36C4.66675 53.48 19.6001 67.6667 38.0001 67.6667C56.4001 67.6667 71.3334 53.48 71.3334 36C71.3334 18.52 56.4001 4.33334 38.0001 4.33334ZM38.0001 13.8333C43.5334 13.8333 48.0001 18.0767 48.0001 23.3333C48.0001 28.59 43.5334 32.8333 38.0001 32.8333C32.4667 32.8333 28.0001 28.59 28.0001 23.3333C28.0001 18.0767 32.4667 13.8333 38.0001 13.8333ZM38.0001 58.8C29.6667 58.8 22.3001 54.7467 18.0001 48.6033C18.1001 42.3017 31.3334 38.85 38.0001 38.85C44.6334 38.85 57.9001 42.3017 58.0001 48.6033C53.7001 54.7467 46.3334 58.8 38.0001 58.8Z" fill="#757575"/>
</svg>
